<svg width="16" height="16" viewBox="0 0 24 24" xmlns="http://www.w3.org/2000/svg">
<path d="M19.9531 8.33439L10.1293 21.0385C9.67844 21.6154 9.01403 21.9399 8.30215 21.9519L4.38686 22C4.17329 22 3.99533 21.8558 3.94787 21.6514L3.05803 17.7933C2.90379 17.0842 3.05803 16.3511 3.50888 15.7862L10.4734 6.77192C10.592 6.62769 10.8056 6.60485 10.9479 6.71182L13.8785 9.04351C14.0683 9.19976 14.3293 9.28389 14.6022 9.24783C15.1836 9.17572 15.5751 8.64688 15.5158 8.08199C15.4802 7.79353 15.3378 7.55315 15.148 7.37287C15.0887 7.32479 12.3005 5.08926 12.3005 5.08926C12.1225 4.94503 12.0869 4.68061 12.2293 4.50153L13.3327 3.07006C14.3531 1.75999 16.1328 1.6398 17.5684 2.78161L19.2175 4.09168C19.8938 4.62051 20.3447 5.31762 20.4989 6.05078C20.6769 6.85725 20.487 7.6493 19.9531 8.33439Z"/>
</svg>
