<svg width="30" height="30" viewBox="0 0 23 23" fill="none" xmlns="http://www.w3.org/2000/svg">
<path d="M22.5602 11.8045C22.5602 10.9001 22.4853 10.2401 22.3232 9.55566H11.7847V13.6378H17.9706C17.8459 14.6523 17.1724 16.1801 15.6758 17.2067L15.6548 17.3434L18.9869 19.8731L19.2178 19.8957C21.3379 17.9767 22.5602 15.1534 22.5602 11.8045Z" fill="#4285F4"/>
<path d="M11.784 22.5599C14.8146 22.5599 17.3588 21.582 19.2171 19.8954L15.6751 17.2064C14.7273 17.8542 13.4552 18.3064 11.784 18.3064C8.81581 18.3064 6.29657 16.3876 5.39853 13.7354L5.26689 13.7463L1.80215 16.3741L1.75684 16.4976C3.60261 20.0909 7.39399 22.5599 11.784 22.5599Z" fill="#34A853"/>
<path d="M5.39901 13.7356C5.16205 13.0512 5.02492 12.3178 5.02492 11.5601C5.02492 10.8022 5.16205 10.0689 5.38654 9.38449L5.38026 9.23872L1.87209 6.56873L1.75731 6.62223C0.996571 8.11336 0.560059 9.78784 0.560059 11.5601C0.560059 13.3323 0.996571 15.0067 1.75731 16.4978L5.39901 13.7356Z" fill="#FBBC05"/>
<path d="M11.7841 4.81336C13.8918 4.81336 15.3135 5.70558 16.1242 6.45119L19.292 3.42006C17.3465 1.64784 14.8147 0.560059 11.7841 0.560059C7.39402 0.560059 3.60262 3.02893 1.75684 6.62223L5.38608 9.38449C6.29659 6.73227 8.81585 4.81336 11.7841 4.81336" fill="#EB4335"/>
</svg>
