<svg width="80" height="93" viewBox="0 0 80 93" fill="none" xmlns="http://www.w3.org/2000/svg">
<path d="M61 93L54.9354 67.5208L34 77.5L61 93Z" fill="#FFDDDD"/>
<path d="M80 40C80 62.0914 62.0914 80 40 80C17.9086 80 0 62.0914 0 40C0 17.9086 17.9086 0 40 0C62.0914 0 80 17.9086 80 40Z" fill="#FFDDDD"/>
<path d="M51.42 20.5803C50.222 20.1783 48.962 20.0003 47.7 20.0003C44.92 19.9803 42.222 20.9003 40 22.5983C39.82 22.4603 39.6 22.3383 39.4 22.2203C39.2 22.0983 38.84 21.8003 38.54 21.6403L37.78 21.3003C37.38 21.0803 36.962 20.9203 36.52 20.7783C36.48 20.7403 36.42 20.6983 36.34 20.6603H36.222C35.04 20.2583 33.82 20.0383 32.56 20.0003H32.34C31.78 20.0003 31.222 20.0383 30.66 20.1203H30.42C29.82 20.1983 29.222 20.3383 28.642 20.5383C21.18 22.9803 18.52 31.0803 20.78 38.1603C22.06 41.7783 24.122 45.0603 26.802 47.7583C30.7 51.5183 34.962 54.8383 39.54 57.6783L40.06 58.0003L40.56 57.6983C45.122 54.8383 49.36 51.5183 53.222 47.7783C55.92 45.0803 57.98 41.7783 59.24 38.1603C61.462 31.0803 58.802 22.9803 51.42 20.5803Z" fill="url(#paint0_linear_8076_49281)"/>
<defs>
<linearGradient id="paint0_linear_8076_49281" x1="40.0002" y1="20" x2="40.0002" y2="58.0003" gradientUnits="userSpaceOnUse">
<stop stop-color="#FF7774"/>
<stop offset="1" stop-color="#DE1D19"/>
</linearGradient>
</defs>
</svg>
