<svg width="90" height="85" viewBox="0 0 90 85" fill="none" xmlns="http://www.w3.org/2000/svg">
<path d="M44.3899 0C50.4299 0 55.9099 1.16 59.8899 3.035C64.0199 4.98167 66.5749 7.72667 66.5749 10.8083C66.5749 10.8617 66.5733 10.9167 66.5716 10.97L66.5799 73.7033H66.5833V73.71C66.5833 76.7017 64.0383 79.4 59.9199 81.3233C55.9583 83.175 50.4983 84.335 44.4766 84.345H44.4049V84.3483C38.3649 84.3483 32.8849 83.1883 28.9049 81.3133C24.7749 79.3667 22.2199 76.6217 22.2199 73.54H22.2233L22.2066 10.9733C22.2049 10.9183 22.2033 10.8633 22.2033 10.8083C22.2033 7.72667 24.7583 4.98167 28.8883 3.035C32.8683 1.16 38.3483 0 44.3883 0H44.3899ZM9.6466 31.9233L9.75993 31.8383L9.89159 31.74L10.0249 31.6433L10.1583 31.5467L10.2933 31.4517L10.4299 31.3567L10.5666 31.2633L10.7049 31.17L9.96326 30.0617L9.8166 30.16L9.6716 30.26L9.5266 30.36L9.38326 30.4617L9.2416 30.5633L9.10159 30.6667L8.9616 30.77L8.84826 30.855L9.6466 31.9233ZM10.1683 62.7117L10.0233 62.6083L9.88993 62.5117L9.75826 62.4133L9.62826 62.315L9.49826 62.2167L9.36993 62.1167L9.24326 62.0167L9.13826 61.9317L8.29993 62.9683L8.41326 63.06L8.54826 63.1667L8.68493 63.2733L8.8216 63.3783L8.95993 63.4833L9.09993 63.5867L9.23993 63.69L9.39326 63.8L10.1666 62.715L10.1683 62.7117ZM6.36326 59.2367L6.31826 59.1833L6.21993 59.0667L6.12326 58.95L6.02826 58.8317L5.93326 58.7133L5.83993 58.595L5.74826 58.475L5.6566 58.355L5.56159 58.2283L4.48493 59.015L4.5916 59.1583L4.68826 59.2867L4.7866 59.4133L4.8866 59.54L4.98826 59.6667L5.08993 59.7917L5.19326 59.9167L5.29826 60.0417L5.34326 60.095L6.3616 59.235L6.36326 59.2367ZM3.58326 54.9167L3.5416 54.8267L3.4816 54.695L3.42326 54.5633L3.36493 54.4317L3.30826 54.2983L3.25326 54.165L3.19826 54.0317L3.14493 53.8983L3.09326 53.765L3.0816 53.7317L1.83493 54.2033L1.8516 54.245L1.90826 54.3883L1.96493 54.5317L2.02326 54.675L2.08326 54.8167L2.14326 54.9583L2.20493 55.1L2.26826 55.2417L2.3316 55.3833L2.37326 55.4733L3.58493 54.9167H3.58326ZM2.07993 50.01L2.0666 49.93L2.04493 49.79L2.02493 49.65L2.0066 49.51L1.98826 49.37L1.9716 49.23L1.9566 49.09L1.9416 48.95L1.92826 48.81L1.9216 48.7317L0.593262 48.8433L0.601595 48.9317L0.616595 49.0817L0.631595 49.2317L0.648262 49.3817L0.666595 49.5317L0.684928 49.6817L0.704928 49.8317L0.726595 49.9817L0.749928 50.1317L0.763262 50.2117L2.0816 50.0083L2.07993 50.01ZM1.98993 44.8833L2.00826 44.7417L2.0266 44.6017L2.0466 44.4617L2.06826 44.3217L2.08993 44.1817L2.11326 44.0417L2.13826 43.9033L2.16326 43.765L2.19326 43.61L0.886595 43.345L0.881595 43.37L0.853262 43.5183L0.826595 43.6667L0.799928 43.8167L0.774928 43.9667L0.751595 44.1167L0.728262 44.2667L0.706595 44.4167L0.686595 44.5667L0.668262 44.7083L1.98993 44.8817V44.8833ZM3.3216 39.9267L3.3666 39.8217L3.42493 39.69L3.48326 39.5583L3.54326 39.4267L3.60493 39.295L3.6666 39.1633L3.72993 39.0333L3.79326 38.9033L3.86493 38.76L2.67993 38.1483L2.66826 38.17L2.59826 38.3083L2.52993 38.4483L2.4616 38.5883L2.39493 38.7283L2.32993 38.8683L2.2666 39.01L2.20326 39.1517L2.1416 39.2933L2.0966 39.3983L3.31993 39.9267H3.3216ZM5.95326 35.515L6.02993 35.42L6.12493 35.3017L6.2216 35.185L6.31993 35.0683L6.41826 34.9517L6.51826 34.8367L6.61993 34.7217L6.7216 34.6067L6.78993 34.53L5.80493 33.6317L5.72993 33.715L5.6216 33.8367L5.51326 33.96L5.4066 34.0833L5.3016 34.2067L5.1966 34.3317L5.09326 34.4567L4.9916 34.5817L4.91493 34.6767L5.95326 35.5133V35.515ZM15.4799 35.285C15.7849 35.08 16.1983 35.1617 16.4016 35.4667C16.6066 35.7717 16.5249 36.185 16.2199 36.3883C14.6183 37.46 13.3399 38.755 12.3849 40.1833C10.9699 42.2983 10.2616 44.7117 10.2616 47.125C10.2616 49.54 10.9699 51.9517 12.3849 54.0667C13.3399 55.495 14.6183 56.79 16.2199 57.8617C16.5249 58.0667 16.6066 58.4783 16.4016 58.7833C16.1966 59.0883 15.7849 59.17 15.4799 58.965C13.7299 57.7933 12.3299 56.3733 11.2799 54.805C9.7116 52.4617 8.92826 49.7917 8.92826 47.1233C8.92826 44.455 9.7116 41.785 11.2799 39.4417C12.3299 37.8733 13.7299 36.4533 15.4799 35.2817V35.285ZM81.1533 30.855L81.0399 30.77L80.8999 30.6667L80.7599 30.5633L80.6183 30.4617L80.4749 30.36L80.3299 30.26L80.1849 30.16L80.0383 30.0617L79.2966 31.17L79.4349 31.2633L79.5716 31.3567L79.7083 31.4517L79.8433 31.5467L79.9766 31.6433L80.1099 31.74L80.2416 31.8383L80.3549 31.9233L81.1533 30.855ZM80.6066 63.7983L80.7599 63.6883L80.8999 63.585L81.0399 63.4817L81.1783 63.3767L81.3149 63.2717L81.4516 63.165L81.5866 63.0583L81.6999 62.9667L80.8616 61.93L80.7566 62.015L80.6299 62.115L80.5016 62.215L80.3716 62.3133L80.2416 62.4117L80.1099 62.51L79.9766 62.6067L79.8316 62.71L80.6049 63.795L80.6066 63.7983ZM84.6566 60.0967L84.7016 60.0433L84.8066 59.9183L84.9099 59.7933L85.0116 59.6683L85.1133 59.5417L85.2133 59.415L85.3116 59.2883L85.4083 59.16L85.5149 59.0167L84.4383 58.23L84.3433 58.3567L84.2516 58.4767L84.1599 58.5967L84.0666 58.715L83.9716 58.8333L83.8766 58.9517L83.7799 59.0683L83.6816 59.185L83.6366 59.2383L84.6549 60.0983L84.6566 60.0967ZM87.6283 55.4733L87.6699 55.3833L87.7333 55.2417L87.7966 55.1L87.8583 54.9583L87.9183 54.8167L87.9783 54.675L88.0366 54.5317L88.0933 54.3883L88.1499 54.245L88.1666 54.2033L86.9199 53.7317L86.9083 53.765L86.8566 53.8983L86.8033 54.0317L86.7483 54.165L86.6933 54.2983L86.6366 54.4317L86.5783 54.5633L86.5199 54.695L86.4599 54.8267L86.4183 54.9167L87.6299 55.4733H87.6283ZM89.2383 50.2133L89.2516 50.1333L89.2749 49.9833L89.2966 49.8333L89.3166 49.6833L89.3349 49.5333L89.3533 49.3833L89.3699 49.2333L89.3849 49.0833L89.3999 48.9333L89.4083 48.845L88.0799 48.7333L88.0733 48.8117L88.0599 48.9517L88.0449 49.0917L88.0299 49.2317L88.0133 49.3717L87.9949 49.5117L87.9766 49.6517L87.9566 49.7917L87.9349 49.9317L87.9216 50.0117L89.2399 50.215L89.2383 50.2133ZM89.3333 44.71L89.3149 44.5683L89.2949 44.4183L89.2733 44.2683L89.2499 44.1183L89.2266 43.9683L89.2016 43.8183L89.1749 43.6683L89.1483 43.52L89.1199 43.3717L89.1149 43.3467L87.8083 43.6117L87.8383 43.7667L87.8633 43.905L87.8883 44.0433L87.9116 44.1833L87.9333 44.3233L87.9549 44.4633L87.9749 44.6033L87.9933 44.7433L88.0116 44.885L89.3333 44.7117V44.71ZM87.9033 39.3983L87.8583 39.2933L87.7966 39.1517L87.7333 39.01L87.6699 38.8683L87.6049 38.7283L87.5383 38.5883L87.4699 38.4483L87.4016 38.3083L87.3316 38.17L87.3199 38.1483L86.1349 38.76L86.2066 38.9033L86.2699 39.0333L86.3333 39.1633L86.3949 39.295L86.4566 39.4267L86.5166 39.5583L86.5749 39.69L86.6333 39.8217L86.6783 39.9267L87.9016 39.3983H87.9033ZM85.0866 34.6783L85.0099 34.5833L84.9083 34.4583L84.8049 34.3333L84.6999 34.2083L84.5949 34.085L84.4883 33.9617L84.3799 33.8383L84.2716 33.7167L84.1966 33.6333L83.2116 34.5317L83.2799 34.6083L83.3816 34.7233L83.4833 34.8383L83.5833 34.9533L83.6816 35.07L83.7799 35.1867L83.8766 35.3033L83.9716 35.4217L84.0483 35.5167L85.0866 34.68V34.6783ZM73.7816 36.3883C73.4766 36.1833 73.3949 35.7717 73.5999 35.4667C73.8049 35.1617 74.2166 35.08 74.5216 35.285C76.2716 36.4567 77.6716 37.8767 78.7216 39.445C80.2899 41.7883 81.0733 44.4583 81.0733 47.1267C81.0733 49.795 80.2899 52.465 78.7216 54.8083C77.6716 56.3767 76.2716 57.7967 74.5216 58.9683C74.2166 59.1733 73.8033 59.0917 73.5999 58.7867C73.3949 58.4817 73.4766 58.0683 73.7816 57.865C75.3833 56.7933 76.6616 55.4983 77.6166 54.07C79.0316 51.955 79.7399 49.5417 79.7399 47.1283C79.7399 44.7133 79.0316 42.3017 77.6166 40.1867C76.6616 38.7583 75.3833 37.4633 73.7816 36.3917V36.3883ZM44.3899 7.75333C45.8866 7.75333 47.2549 8.045 48.2566 8.51833C49.4099 9.06167 50.1233 9.86833 50.1233 10.8083C50.1233 11.7483 49.4099 12.555 48.2566 13.0983C47.2549 13.57 45.8866 13.8633 44.3899 13.8633C42.8933 13.8633 41.5249 13.5717 40.5233 13.0983C39.3699 12.555 38.6566 11.7483 38.6566 10.8083C38.6566 9.86833 39.3699 9.06167 40.5233 8.51833C41.5249 8.04667 42.8933 7.75333 44.3899 7.75333ZM47.6883 9.72167C46.8566 9.33 45.6916 9.08667 44.3899 9.08667C43.0883 9.08667 41.9233 9.32833 41.0916 9.72167C40.4116 10.0417 39.9899 10.43 39.9899 10.8083C39.9899 11.1867 40.4116 11.575 41.0916 11.895C41.9233 12.2867 43.0883 12.53 44.3899 12.53C45.6916 12.53 46.8566 12.2883 47.6883 11.895C48.3683 11.575 48.7899 11.1867 48.7899 10.8083C48.7899 10.43 48.3683 10.0417 47.6883 9.72167ZM57.8299 48.7933C58.0233 48.48 58.4333 48.3817 58.7466 48.575C59.0599 48.7683 59.1583 49.1783 58.9649 49.4917C58.0166 51.0317 56.0399 52.3567 53.4216 53.2767C50.9499 54.145 47.8866 54.6633 44.5766 54.6633C41.2666 54.6633 38.2033 54.145 35.7316 53.2767C33.1133 52.3567 31.1349 51.03 30.1883 49.4917C29.9949 49.1783 30.0933 48.7683 30.4066 48.575C30.7199 48.3817 31.1299 48.48 31.3233 48.7933C32.1099 50.0717 33.8399 51.2033 36.1699 52.0217C38.5033 52.8417 41.4133 53.3317 44.5783 53.3317C47.7433 53.3317 50.6533 52.8417 52.9866 52.0217C55.3166 51.2033 57.0466 50.0717 57.8333 48.7933H57.8299ZM57.8299 53.9817C58.0233 53.6683 58.4333 53.57 58.7466 53.7633C59.0599 53.9567 59.1583 54.3667 58.9649 54.68C58.0166 56.22 56.0399 57.545 53.4216 58.465C50.9499 59.3333 47.8866 59.8517 44.5766 59.8517C41.2666 59.8517 38.2033 59.3333 35.7316 58.465C33.1133 57.545 31.1349 56.2183 30.1883 54.68C29.9949 54.3667 30.0933 53.9567 30.4066 53.7633C30.7199 53.57 31.1299 53.6683 31.3233 53.9817C32.1099 55.26 33.8399 56.3917 36.1699 57.21C38.5033 58.03 41.4133 58.52 44.5783 58.52C47.7433 58.52 50.6533 58.03 52.9866 57.21C55.3166 56.3917 57.0466 55.26 57.8333 53.9817H57.8299ZM57.8299 59.17C58.0233 58.8567 58.4333 58.7583 58.7466 58.9517C59.0599 59.145 59.1583 59.555 58.9649 59.8683C58.0166 61.4083 56.0399 62.7333 53.4216 63.6533C50.9499 64.5217 47.8866 65.04 44.5766 65.04C41.2666 65.04 38.2033 64.5217 35.7316 63.6533C33.1133 62.7333 31.1349 61.4067 30.1883 59.8683C29.9949 59.555 30.0933 59.145 30.4066 58.9517C30.7199 58.7583 31.1299 58.8567 31.3233 59.17C32.1099 60.4483 33.8399 61.58 36.1699 62.3983C38.5033 63.2183 41.4133 63.7083 44.5783 63.7083C47.7433 63.7083 50.6533 63.2183 52.9866 62.3983C55.3166 61.58 57.0466 60.4483 57.8333 59.17H57.8299ZM57.8299 64.3583C58.0233 64.045 58.4333 63.9467 58.7466 64.14C59.0599 64.3333 59.1583 64.7433 58.9649 65.0567C58.0166 66.5967 56.0399 67.9217 53.4216 68.8417C50.9499 69.71 47.8866 70.2283 44.5766 70.2283C41.2666 70.2283 38.2033 69.71 35.7316 68.8417C33.1133 67.9217 31.1349 66.595 30.1883 65.0567C29.9949 64.7433 30.0933 64.3333 30.4066 64.14C30.7199 63.9467 31.1299 64.045 31.3233 64.3583C32.1099 65.6367 33.8399 66.7683 36.1699 67.5867C38.5033 68.4067 41.4133 68.8967 44.5783 68.8967C47.7433 68.8967 50.6533 68.4067 52.9866 67.5867C55.3166 66.7683 57.0466 65.6367 57.8333 64.3583H57.8299ZM59.3233 4.23833C55.5149 2.44333 50.2366 1.33333 44.3899 1.33333C38.5449 1.33333 33.2666 2.44333 29.4566 4.23833C25.7983 5.96167 23.5366 8.28833 23.5366 10.8083C23.5366 13.3283 25.7983 15.655 29.4566 17.3783C33.2649 19.1733 38.5433 20.2833 44.3899 20.2833C50.2349 20.2833 55.5133 19.1733 59.3233 17.3783C62.9816 15.655 65.2433 13.3283 65.2433 10.8083C65.2433 8.28833 62.9816 5.96167 59.3233 4.23833ZM65.2466 14.5467C64.0983 16.095 62.2516 17.4683 59.8916 18.5817C55.9116 20.4567 50.4316 21.6167 44.3916 21.6167C38.3516 21.6167 32.8716 20.4567 28.8916 18.5817C26.5316 17.47 24.6866 16.0967 23.5383 14.55L23.5533 73.54H23.5566C23.5566 76.06 25.8183 78.3867 29.4766 80.11C33.2849 81.905 38.5633 83.015 44.4099 83.015V83.0183H44.4816C50.3066 83.01 55.5649 81.8967 59.3633 80.1217C63.0049 78.42 65.2549 76.1417 65.2549 73.71V73.7033H65.2583L65.2499 14.5467H65.2466Z" fill="black"/>
</svg>