<svg width="144" height="130" viewBox="0 0 144 130" fill="none" xmlns="http://www.w3.org/2000/svg">
<rect x="16.7061" y="115.882" width="110.588" height="14.1176" rx="7.05882" fill="url(#paint0_radial_4548_31869)" fill-opacity="0.25"/>
<g clip-path="url(#clip0_4548_31869)">
<path d="M62.6614 35.9905C62.4544 36.3492 62.3311 36.7476 62.2519 37.1694L62.2263 37.1546L50.9988 108.548L51.0341 108.568C50.7815 109.727 52.2152 111.562 54.4988 112.883C56.7818 114.201 59.088 114.525 59.965 113.727L59.997 113.745L116.211 68.3227L116.185 68.3054C116.509 68.0292 116.792 67.7232 117 67.3588C119.888 62.3574 110.064 51.2807 95.0623 42.6173C80.0554 33.9552 65.5515 30.9884 62.6614 35.9905Z" fill="#ED8A00"/>
<path d="M69.1842 46.4549L51.2813 106.754L50.9988 108.548L51.034 108.568C50.7814 109.727 52.2151 111.562 54.4988 112.883C55.2416 113.311 55.9693 113.593 56.6661 113.809L82.6686 56.3748L69.1842 46.4549Z" fill="#FABF6C"/>
<path d="M95.189 42.3721C110.143 51.0104 120.061 61.8318 117.335 66.5464C114.613 71.2654 100.283 68.0896 85.3221 59.4584C70.3651 50.8209 60.4484 39.9937 63.1715 35.2773C65.8971 30.5601 80.2269 33.736 95.189 42.3721Z" fill="#ED811E"/>
<path d="M84.3891 46.7357C83.9955 47.277 83.3958 47.665 82.681 47.7753C80.4255 48.1253 78.3776 47.8566 76.7645 46.9978C75.0566 46.0886 73.9235 44.5571 73.6484 42.793C73.1651 39.6963 75.4451 36.1243 80.7431 35.3002C82.8031 34.9783 83.5245 34.0948 83.4723 33.7786C83.4258 33.4636 82.471 32.8397 80.4102 33.1591C78.1547 33.5091 76.1069 33.2404 74.4912 32.3823C72.7833 31.4731 71.6477 29.9423 71.3751 28.1775C70.8969 25.0794 73.1743 21.5081 78.4679 20.6879C79.9695 20.4534 80.6592 19.9465 80.9328 19.6647C81.1503 19.4359 81.2132 19.2567 81.1997 19.1656C81.1481 18.8519 80.2034 18.2254 78.1376 18.5462C76.7106 18.7661 75.3726 17.793 75.1545 16.3628C74.932 14.9365 75.9033 13.6017 77.3354 13.3804C82.6276 12.5551 85.8865 15.2627 86.368 18.3627C86.8476 21.4658 84.5688 25.0321 79.2715 25.8587C77.7692 26.0907 77.0878 26.5981 76.8116 26.8805C76.5935 27.1068 76.5287 27.2892 76.5416 27.3778C76.5913 27.6947 77.5404 28.3173 79.6062 27.9966C84.899 27.1738 88.1573 29.8789 88.6387 32.9789C89.1195 36.0763 86.8421 39.6476 81.546 40.4685C80.0444 40.703 79.3579 41.2118 79.081 41.4917C78.8617 41.7237 78.8013 41.9022 78.8142 41.9908C78.8633 42.3052 79.813 42.9303 81.8763 42.6102C83.3007 42.391 84.6419 43.3659 84.8593 44.7936C84.974 45.5045 84.7834 46.197 84.3891 46.7357Z" fill="#DD2E44"/>
<path d="M121.13 61.9216C125.735 59.18 129.768 60.4813 131.368 63.1788C132.967 65.8738 132.182 70.0382 127.578 72.7741C125.78 73.8406 125.445 74.9262 125.603 75.2007C125.769 75.4757 126.887 75.701 128.68 74.6334C133.284 71.8975 137.317 73.1988 138.916 75.8938C140.52 78.5899 139.73 82.7507 135.124 85.4898C133.328 86.5556 132.992 87.6444 133.157 87.9169C133.319 88.19 134.435 88.416 136.231 87.3502C137.469 86.6153 139.077 87.0207 139.812 88.2608C140.546 89.5042 140.139 91.1072 138.897 91.846C134.295 94.5812 130.262 93.2856 128.656 90.5869C127.057 87.892 127.845 83.7319 132.454 80.9921C134.252 79.9231 134.587 78.84 134.421 78.565C134.261 78.2912 133.144 78.0627 131.351 79.1278C126.742 81.8676 122.714 80.5706 121.11 77.8688C119.509 75.1745 120.297 71.0144 124.902 68.2728C126.696 67.2102 127.029 66.1195 126.87 65.8482C126.704 65.5733 125.591 65.3466 123.795 66.4124C122.553 67.1511 120.952 66.7411 120.213 65.5017C119.479 64.2641 119.888 62.6604 121.13 61.9216Z" fill="#0084FF"/>
<path d="M99.961 60.2942C99.2185 60.4931 98.3989 60.3636 97.7324 59.8764C96.5689 59.0189 96.3226 57.3824 97.175 56.2202C97.6071 55.6308 107.975 41.7989 127.245 39.4803C128.679 39.3071 129.981 40.3278 130.154 41.7619C130.327 43.1935 129.319 44.5029 127.869 44.6693C110.849 46.7345 101.482 59.1937 101.391 59.3183C101.022 59.8179 100.514 60.146 99.961 60.2942Z" fill="#DD2E44"/>
<path d="M53.5921 61.459C53.3522 61.5233 53.0978 61.5535 52.8364 61.5478C51.3929 61.5042 50.2584 60.3006 50.302 58.8572C50.6102 48.5626 49.1295 32.6628 44.8803 29.5521C44.4038 29.198 43.7475 28.9002 42.5401 29.3238C40.2201 30.1403 41.784 35.0777 41.8 35.1275C42.2789 36.4905 41.5583 37.9828 40.1971 38.4585C38.8085 38.9226 37.3418 38.2167 36.8654 36.853C35.6722 33.4403 34.9584 26.4429 40.8121 24.3899C43.4247 23.4733 45.8877 23.8067 47.9719 25.3323C55.9562 31.1801 55.6665 54.4127 55.5296 59.0127C55.4943 60.1942 54.678 61.168 53.5921 61.459Z" fill="#0084FF"/>
<path d="M100.074 35.4714C102.166 34.9109 103.407 32.7605 102.847 30.6685C102.286 28.5765 100.136 27.335 98.0438 27.8955C95.9518 28.4561 94.7103 30.6064 95.2708 32.6985C95.8314 34.7905 97.9817 36.032 100.074 35.4714Z" fill="#1D9D3C"/>
<path d="M46.8187 74.1004C49.6081 73.353 51.2634 70.4859 50.516 67.6965C49.7686 64.9072 46.9015 63.2518 44.1121 63.9992C41.3228 64.7466 39.6674 67.6138 40.4148 70.4031C41.1622 73.1925 44.0294 74.8478 46.8187 74.1004Z" fill="#F74641"/>
<path d="M124.517 55.9878C126.609 55.4272 127.851 53.2769 127.29 51.1849C126.73 49.0928 124.579 47.8513 122.487 48.4119C120.395 48.9725 119.154 51.1228 119.714 53.2148C120.275 55.3068 122.425 56.5483 124.517 55.9878Z" fill="#1D9D3C"/>
<path d="M109.909 92.3811C112.001 91.8205 113.243 89.6702 112.682 87.5782C112.122 85.4862 109.971 84.2447 107.879 84.8052C105.787 85.3658 104.546 87.5161 105.106 89.6081C105.667 91.7002 107.817 92.9417 109.909 92.3811Z" fill="#1D9D3C"/>
<path d="M103.004 21.1534C105.793 20.406 107.448 17.5389 106.701 14.7495C105.954 11.9601 103.087 10.3048 100.297 11.0522C97.5078 11.7996 95.8525 14.6667 96.5999 17.4561C97.3473 20.2455 100.214 21.9008 103.004 21.1534Z" fill="#ED8A00"/>
<path d="M117.074 28.2095C119.166 27.6489 120.407 25.4986 119.847 23.4066C119.286 21.3145 117.136 20.073 115.044 20.6336C112.952 21.1941 111.71 23.3445 112.271 25.4365C112.831 27.5285 114.982 28.77 117.074 28.2095Z" fill="#ED8A00"/>
<path d="M112.205 40.3407C114.297 39.7801 115.538 37.6298 114.978 35.5378C114.417 33.4458 112.267 32.2043 110.175 32.7648C108.083 33.3254 106.841 35.4757 107.402 37.5677C107.962 39.6598 110.113 40.9013 112.205 40.3407Z" fill="#ED8A00"/>
<path d="M64.0913 83.0052C66.1834 82.4447 67.4249 80.2943 66.8643 78.2023C66.3037 76.1103 64.1534 74.8688 62.0614 75.4294C59.9694 75.9899 58.7279 78.1403 59.2884 80.2323C59.849 82.3243 61.9993 83.5658 64.0913 83.0052Z" fill="#ED8A00"/>
</g>
<defs>
<radialGradient id="paint0_radial_4548_31869" cx="0" cy="0" r="1" gradientUnits="userSpaceOnUse" gradientTransform="translate(72.0002 122.941) rotate(90) scale(7.05882 55.2941)">
<stop offset="0.39375" stop-color="#FF9500"/>
<stop offset="0.747917" stop-color="#F0C584"/>
<stop offset="1" stop-color="white"/>
</radialGradient>
<clipPath id="clip0_4548_31869">
<rect width="94.1176" height="94.1176" fill="white" transform="translate(28.2354 24.9478) rotate(-15)"/>
</clipPath>
</defs>
</svg>
