<svg width="91" height="87" viewBox="0 0 91 87" fill="none" xmlns="http://www.w3.org/2000/svg">
<path d="M23.0351 0.24292C29.2038 0.24292 34.8005 1.42762 38.8652 3.34255C43.0832 5.33068 45.6926 8.13413 45.6926 11.2814C45.6926 11.3359 45.6909 11.3921 45.6892 11.4465L45.6909 19.5812C49.8544 17.4858 54.5557 16.3062 59.5328 16.3062C68.047 16.3062 75.7578 19.7599 81.3409 25.3413C86.9223 30.9226 90.376 38.6334 90.376 47.1493C90.376 55.6635 86.9223 63.3743 81.3409 68.9574C75.7595 74.5388 68.0487 77.9925 59.5328 77.9925C56.9183 77.9925 54.4349 77.6861 52.0536 77.0903C49.8561 76.5405 47.7454 75.7439 45.6977 74.7124V75.5158H45.7011V75.5226C45.7011 78.578 43.1019 81.3338 38.8959 83.2981C34.8498 85.1892 29.2735 86.3739 23.1236 86.3841H23.0504V86.3875C16.8818 86.3875 11.2851 85.2028 7.22036 83.2879C3.00241 81.2998 0.392998 78.4963 0.392998 75.349H0.396402L0.379381 11.4499C0.377679 11.3938 0.375977 11.3376 0.375977 11.2814C0.375977 8.13413 2.98539 5.33068 7.20334 3.34255C11.2681 1.42762 16.8648 0.24292 23.0334 0.24292H23.0351ZM53.4766 61.7675L53.8766 62.5181L53.1259 62.9181L52.7259 62.1675L53.4766 61.7675ZM71.5007 52.1571L71.9007 52.9077L71.1501 53.3078L70.7501 52.5571L71.5007 52.1571ZM68.4964 53.7588L68.8964 54.5095L68.1458 54.9095L67.7458 54.1588L68.4964 53.7588ZM65.4921 55.3606L65.8921 56.1112L65.1415 56.5112L64.7414 55.7606L65.4921 55.3606ZM62.4878 56.9623L62.8878 57.7129L62.1371 58.113L61.7371 57.3623L62.4878 56.9623ZM59.4835 58.564L59.8835 59.3147L59.1328 59.7147L58.7328 58.964L59.4835 58.564ZM56.4792 60.1658L56.8792 60.9164L56.1285 61.3164L55.7285 60.5658L56.4792 60.1658ZM54.3259 31.692L53.9259 32.4427L53.1753 32.0427L53.5753 31.292L54.3259 31.692ZM72.3501 41.3024L71.9501 42.0531L71.1994 41.6531L71.5994 40.9024L72.3501 41.3024ZM69.3458 39.7007L68.9458 40.4513L68.1951 40.0513L68.5951 39.3007L69.3458 39.7007ZM66.3415 38.099L65.9415 38.8496L65.1908 38.4496L65.5908 37.6989L66.3415 38.099ZM63.3372 36.4972L62.9372 37.2479L62.1865 36.8479L62.5865 36.0972L63.3372 36.4972ZM60.3329 34.8955L59.9328 35.6461L59.1822 35.2461L59.5822 34.4955L60.3329 34.8955ZM57.3285 33.2938L56.9285 34.0444L56.1779 33.6444L56.5779 32.8937L57.3285 33.2938ZM49.0084 32.7184L74.1748 46.1638C74.505 46.3408 74.631 46.751 74.454 47.0813C74.3893 47.2038 74.2906 47.2991 74.1765 47.3587V47.3604L48.9556 60.9794C48.6254 61.1564 48.2135 61.0339 48.0348 60.7019C47.9803 60.5998 47.953 60.4892 47.953 60.3802H47.9513V33.2869C47.9513 32.9108 48.256 32.6061 48.6322 32.6061C48.7701 32.6061 48.8977 32.6469 49.005 32.7167L49.0084 32.7184ZM72.4216 46.7647L49.3165 34.4206V59.2415L72.4216 46.7647ZM44.6764 20.1156H44.3326V15.0994C43.1598 16.6807 41.2738 18.0833 38.8635 19.2203C34.7988 21.1352 29.2021 22.3199 23.0334 22.3199C16.8648 22.3199 11.2681 21.1352 7.20334 19.2203C4.79308 18.085 2.90879 16.6824 1.736 15.1028L1.75132 75.349H1.75473C1.75473 77.9227 4.06456 80.2989 7.8008 82.0589C11.6902 83.8922 17.081 85.0258 23.0522 85.0258V85.0292H23.1253C29.0744 85.0207 34.4447 83.8837 38.3239 82.0709C42.0431 80.3329 44.3411 78.0061 44.3411 75.5226V75.5158H44.3445V74.8026C39.8627 75.7167 36.8771 76.0554 33.8915 76.3941C30.6591 76.7601 27.425 77.1261 22.2504 78.241C21.8828 78.3193 21.5219 78.0844 21.4453 77.7167C21.3857 77.4376 21.5066 77.1635 21.7296 77.0137L35.4064 66.3582C33.2583 63.6637 31.6361 60.7292 30.5263 57.6653C29.2957 54.2695 28.6914 50.7154 28.6914 47.151C28.6914 38.6368 32.1451 30.9261 37.7265 25.343C39.7793 23.2902 42.118 21.5267 44.6798 20.1156H44.6764ZM31.7978 57.2006C32.9298 60.3241 34.6149 63.3045 36.8737 66.0161C36.8822 66.0263 36.8907 66.0365 36.8992 66.0467C37.129 66.3412 37.0779 66.7684 36.7818 66.9982L24.8003 76.3329C28.4667 75.6367 31.1017 75.3388 33.7366 75.0409C36.969 74.675 40.2031 74.309 45.3777 73.1941V73.1958C45.5258 73.1635 45.6875 73.1822 45.8322 73.2588C47.9292 74.3584 50.1029 75.2026 52.3787 75.7712C54.6476 76.338 57.0205 76.6307 59.5277 76.6307C67.6658 76.6307 75.0361 73.3303 80.3724 67.994C85.7087 62.6577 89.0091 55.2874 89.0091 47.1493C89.0091 39.0113 85.7087 31.641 80.3724 26.3047C75.0361 20.9684 67.6658 17.6679 59.5277 17.6679C51.388 17.6679 44.0194 20.9684 38.6831 26.3047C33.3468 31.641 30.0463 39.0113 30.0463 47.1493C30.0463 50.5656 30.6217 53.9631 31.7961 57.2006H31.7978ZM38.2814 4.57151C34.3919 2.73829 29.0012 1.60465 23.03 1.60465C17.0605 1.60465 11.6698 2.73829 7.77867 4.57151C4.04243 6.33155 1.7326 8.70776 1.7326 11.2814C1.7326 13.8551 4.04243 16.2313 7.77867 17.9913C11.6681 19.8246 17.0588 20.9582 23.03 20.9582C28.9995 20.9582 34.3902 19.8246 38.2814 17.9913C42.0176 16.2313 44.3274 13.8551 44.3274 11.2814C44.3274 8.70776 42.0176 6.33155 38.2814 4.57151ZM28.208 55.6704C27.408 55.8031 26.5875 55.9035 25.7518 55.9699C24.9245 56.0363 24.0786 56.0704 23.2207 56.0704C19.8402 56.0704 16.7116 55.541 14.1873 54.6542C11.5132 53.7146 9.49274 52.3596 8.52592 50.7886L9.68509 50.0754C10.4885 51.3809 12.2554 52.5367 14.635 53.3724C17.018 54.2099 19.99 54.7103 23.2224 54.7103C24.053 54.7103 24.8632 54.678 25.6479 54.615C26.4633 54.5503 27.248 54.4533 27.9918 54.3308L28.2097 55.6721L28.208 55.6704ZM29.4761 60.6304C28.5978 60.8058 27.5646 60.9879 26.4718 61.1292C25.3773 61.2722 24.2539 61.3692 23.219 61.3692C19.8385 61.3692 16.7099 60.8398 14.1856 59.953C11.5115 59.0134 9.49104 57.6585 8.52422 56.0874L9.68339 55.3742C10.4868 56.6797 12.2536 57.8355 14.6333 58.6713C17.0163 59.5087 19.9883 60.0092 23.2207 60.0092C24.2181 60.0092 25.2769 59.9189 26.2982 59.7862C27.3212 59.6534 28.334 59.473 29.2174 59.2977L29.4778 60.6321L29.4761 60.6304ZM30.8378 65.6927C29.7008 66.0059 28.465 66.2527 27.1578 66.4195C25.8879 66.5812 24.5671 66.668 23.2173 66.668C19.8368 66.668 16.7082 66.1386 14.1839 65.2518C11.5098 64.3122 9.48934 62.9573 8.52251 61.3862L9.68168 60.673C10.4851 61.9786 12.2519 63.1343 14.6316 63.9701C17.0146 64.8075 19.9866 65.308 23.219 65.308C24.5381 65.308 25.8011 65.2263 26.9892 65.0748C28.225 64.9165 29.3961 64.6833 30.477 64.3854L30.8395 65.6944L30.8378 65.6927ZM23.219 71.9668C19.8385 71.9668 16.7099 71.4375 14.1856 70.5506C11.5115 69.611 9.49104 68.2561 8.52422 66.685L9.68339 65.9718C10.4868 67.2774 12.2536 68.4331 14.6333 69.2689C17.0163 70.1064 19.9883 70.6068 23.2207 70.6068V71.9685L23.219 71.9668ZM23.03 8.16137C24.5586 8.16137 25.956 8.45925 26.979 8.94266C28.1569 9.49756 28.8855 10.3214 28.8855 11.2814C28.8855 12.2414 28.1569 13.0653 26.979 13.6202C25.956 14.1019 24.5586 14.4015 23.03 14.4015C21.5015 14.4015 20.104 14.1036 19.081 13.6202C17.9031 13.0653 17.1746 12.2414 17.1746 11.2814C17.1746 10.3214 17.9031 9.49756 19.081 8.94266C20.104 8.46095 21.5015 8.16137 23.03 8.16137ZM26.3986 10.1716C25.5492 9.77161 24.3594 9.5231 23.03 9.5231C21.7006 9.5231 20.5108 9.76991 19.6614 10.1716C18.967 10.4984 18.5363 10.895 18.5363 11.2814C18.5363 11.6678 18.967 12.0644 19.6614 12.3912C20.5108 12.7912 21.7006 13.0398 23.03 13.0398C24.3594 13.0398 25.5492 12.7929 26.3986 12.3912C27.0931 12.0644 27.5237 11.6678 27.5237 11.2814C27.5237 10.895 27.0931 10.4984 26.3986 10.1716Z" fill="black"/>
</svg>
